<svg width="28" height="56" viewBox="0 0 28 56" fill="none" xmlns="http://www.w3.org/2000/svg">
<path fill-rule="evenodd" clip-rule="evenodd" d="M12 17C12.5523 17 13 17.4477 13 18V19H19V18C19 17.4477 19.4477 17 20 17C20.5523 17 21 17.4477 21 18V19H23C23.7957 19 24.5587 19.3161 25.1213 19.8787C25.6839 20.4413 26 21.2043 26 22V36C26 36.7957 25.6839 37.5587 25.1213 38.1213C24.5587 38.6839 23.7957 39 23 39H9C8.20435 39 7.44129 38.6839 6.87868 38.1213C6.31607 37.5587 6 36.7957 6 36V22C6 21.2044 6.31607 20.4413 6.87868 19.8787C7.44129 19.3161 8.20435 19 9 19H11V18C11 17.4477 11.4477 17 12 17ZM11 21H9C8.73478 21 8.48043 21.1054 8.29289 21.2929C8.10536 21.4804 8 21.7348 8 22V25H24V22C24 21.7348 23.8946 21.4804 23.7071 21.2929C23.5196 21.1054 23.2652 21 23 21H21V22C21 22.5523 20.5523 23 20 23C19.4477 23 19 22.5523 19 22V21H13V22C13 22.5523 12.5523 23 12 23C11.4477 23 11 22.5523 11 22V21ZM24 27H8V36C8 36.2652 8.10536 36.5196 8.29289 36.7071C8.48043 36.8946 8.73478 37 9 37H23C23.2652 37 23.5196 36.8946 23.7071 36.7071C23.8946 36.5196 24 36.2652 24 36V27Z" fill="#1A0710" fill-opacity="0.85"/>
</svg>
