<svg width="28" height="56" viewBox="0 0 28 56" fill="none" xmlns="http://www.w3.org/2000/svg">
<path fill-rule="evenodd" clip-rule="evenodd" d="M6.57442 28.7075C6.39493 28.4296 6.25004 28.1889 6.14075 28C6.25004 27.8111 6.39493 27.5704 6.57442 27.2925C7.03544 26.5787 7.71817 25.6294 8.60454 24.6839C10.3955 22.7736 12.8995 21 16 21C19.1005 21 21.6045 22.7736 23.3955 24.6839C24.2818 25.6294 24.9646 26.5787 25.4256 27.2925C25.6051 27.5704 25.75 27.8111 25.8593 28C25.75 28.1889 25.6051 28.4296 25.4256 28.7075C24.9646 29.4213 24.2818 30.3706 23.3955 31.3161C21.6045 33.2264 19.1005 35 16 35C12.8995 35 10.3955 33.2264 8.60454 31.3161C7.71817 30.3706 7.03544 29.4213 6.57442 28.7075ZM27.8941 27.5521C27.8941 27.5521 28.0463 28.1426 27.8941 28.4479L27.8925 28.4511L27.889 28.458L27.8777 28.4802C27.8681 28.4987 27.8547 28.5247 27.8373 28.5576C27.8025 28.6233 27.752 28.7168 27.686 28.834C27.5542 29.0684 27.3602 29.3985 27.1057 29.7925C26.5979 30.5787 25.8432 31.6294 24.8545 32.6839C22.8955 34.7736 19.8995 37 16 37C12.1005 37 9.10449 34.7736 7.14547 32.6839C6.15684 31.6294 5.40207 30.5787 4.89434 29.7925C4.63986 29.3985 4.4458 29.0684 4.31398 28.834C4.24803 28.7168 4.19755 28.6233 4.16276 28.5576C4.14536 28.5247 4.13188 28.4987 4.12235 28.4802L4.111 28.458L4.10755 28.4511L4.10638 28.4488L4.10593 27.5521L4.10755 27.5489L4.111 27.542L4.12235 27.5198C4.13188 27.5013 4.14536 27.4753 4.16276 27.4424C4.19755 27.3767 4.24803 27.2832 4.31398 27.166C4.4458 26.9316 4.63986 26.6015 4.89434 26.2075C5.40207 25.4213 6.15684 24.3706 7.14547 23.3161C9.10449 21.2264 12.1005 19 16 19C19.8995 19 22.8955 21.2264 24.8545 23.3161C25.8432 24.3706 26.5979 25.4213 27.1057 26.2075C27.3602 26.6015 27.5542 26.9316 27.686 27.166C27.752 27.2832 27.8025 27.3767 27.8373 27.4424C27.8547 27.4753 27.8681 27.5013 27.8777 27.5198L27.889 27.542L27.8925 27.5489L27.8941 27.5521ZM27.8941 28.4479C28.0348 28.1664 28.0348 27.8336 27.8941 27.5521C27.8941 27.5521 28.0463 28.1426 27.8941 28.4479ZM4.10558 28.4472L4.10576 27.9996L4.10593 27.5521C3.96517 27.8336 3.96482 28.1657 4.10558 28.4472ZM16 24C14.9391 24 13.9217 24.4214 13.1716 25.1716C12.4214 25.9217 12 26.9391 12 28C12 29.0609 12.4214 30.0783 13.1716 30.8284C13.9217 31.5786 14.9391 32 16 32C17.0609 32 18.0783 31.5786 18.8284 30.8284C19.5786 30.0783 20 29.0609 20 28C20 26.9391 19.5786 25.9217 18.8284 25.1716C18.0783 24.4214 17.0609 24 16 24ZM17.4142 29.4142C17.0391 29.7893 16.5304 30 16 30C15.4696 30 14.9609 29.7893 14.5858 29.4142C14.2107 29.0391 14 28.5304 14 28C14 27.4696 14.2107 26.9609 14.5858 26.5858C14.9609 26.2107 15.4696 26 16 26C16.5304 26 17.0391 26.2107 17.4142 26.5858C17.7893 26.9609 18 27.4696 18 28C18 28.5304 17.7893 29.0391 17.4142 29.4142Z" fill="#1A0710" fill-opacity="0.85"/>
</svg>
